<svg xmlns="http://www.w3.org/2000/svg" version="1.1" xmlns:xlink="http://www.w3.org/1999/xlink" xmlns:svgjs="http://svgjs.dev/svgjs" width="1440" height="560" preserveAspectRatio="none" viewBox="0 0 1440 560"><g mask="url(&quot;#SvgjsMask2178&quot;)" fill="none"><rect width="1440" height="560" x="0" y="0" fill="url(&quot;#SvgjsLinearGradient2179&quot;)"></rect><path d="M1440 0L945.63 0L1440 90.98z" fill="rgba(255, 255, 255, .1)"></path><path d="M945.63 0L1440 90.98L1440 313.92L792 0z" fill="rgba(255, 255, 255, .075)"></path><path d="M792 0L1440 313.92L1440 379.49L625.01 0z" fill="rgba(255, 255, 255, .05)"></path><path d="M625.01 0L1440 379.49L1440 452.48L286.49 0z" fill="rgba(255, 255, 255, .025)"></path><path d="M0 560L13.53 560L0 421.49z" fill="rgba(0, 0, 0, .1)"></path><path d="M0 421.49L13.53 560L276.78 560L0 352.94z" fill="rgba(0, 0, 0, .075)"></path><path d="M0 352.94L276.78 560L919.1999999999999 560L0 301.42z" fill="rgba(0, 0, 0, .05)"></path><path d="M0 301.42L919.1999999999999 560L973.8199999999999 560L0 196.29000000000002z" fill="rgba(0, 0, 0, .025)"></path></g><defs><mask id="SvgjsMask2178"><rect width="1440" height="560" fill="#ffffff"></rect></mask><linearGradient x1="84.72%" y1="139.29%" x2="15.28%" y2="-39.29%" gradientUnits="userSpaceOnUse" id="SvgjsLinearGradient2179"><stop stop-color="rgba(193, 185, 185, 0.33)" offset="0"></stop><stop stop-color="rgba(158, 0, 0, 1)" offset="1"></stop></linearGradient></defs></svg>